<svg width="488" height="339" xmlns="http://www.w3.org/2000/svg" xmlns:xlink="http://www.w3.org/1999/xlink" xml:space="preserve" overflow="hidden"><defs><clipPath id="clip0"><rect x="1328" y="956" width="488" height="339"/></clipPath></defs><g clip-path="url(#clip0)" transform="translate(-1328 -956)"><path d="M1747.97 959 1816 959 1663.44 1101.36 1663.44 1108.24 1750.72 1108.24C1764 1108.24 1775.34 1112.94 1784.73 1122.34 1794.12 1131.74 1798.82 1143.09 1798.82 1156.38L1798.82 1295 1743.84 1295 1743.84 1151.57 1566 1151.57 1566 1141.8Z" fill="#FFC000" fill-rule="evenodd"/><path d="M1382.86 1004.14 1382.86 1286.12 1424 1244.86 1561.14 1244.86 1561.14 1004.14ZM1328 956 1568 956C1580.8 956 1592 960.814 1601.6 970.443 1611.2 980.071 1616 991.305 1616 1004.14L1616 1244.86C1616 1257.7 1611.2 1268.93 1601.6 1278.56 1592 1288.19 1580.8 1293 1568 1293L1328 1293 1328 1052.29 1376 1004.14 1328 1004.14Z" fill="#FFFFFF" fill-rule="evenodd"/></g></svg>