<svg width="536" height="337" xmlns="http://www.w3.org/2000/svg" xmlns:xlink="http://www.w3.org/1999/xlink" xml:space="preserve" overflow="hidden"><defs><clipPath id="clip0"><rect x="1985" y="824" width="536" height="337"/></clipPath><linearGradient x1="1985" y1="992.5" x2="2274" y2="992.5" gradientUnits="userSpaceOnUse" spreadMethod="reflect" id="fill1"><stop offset="0" stop-color="#FFFFFF"/><stop offset="0.59" stop-color="#FFFFFF"/><stop offset="0.85" stop-color="#FFC000"/><stop offset="1" stop-color="#FFC000"/></linearGradient></defs><g clip-path="url(#clip0)" transform="translate(-1985 -824)"><path d="M2452.69 824 2521 824 2367.83 966.365 2367.83 973.242 2455.45 973.242C2468.79 973.242 2480.18 977.942 2489.61 987.341 2499.04 996.741 2503.75 1008.09 2503.75 1021.38L2503.75 1160 2448.56 1160 2448.56 1016.57 2270 1016.57 2270 1006.8Z" fill="#FFC000" fill-rule="evenodd"/><path d="M2040.05 872.143 2040.05 1154.12 2081.33 1112.86 2218.95 1112.86 2218.95 872.143ZM1985 824 2225.83 824C2238.68 824 2249.92 828.814 2259.55 838.443 2269.18 848.071 2274 859.305 2274 872.143L2274 1112.86C2274 1125.7 2269.18 1136.93 2259.55 1146.56 2249.92 1156.19 2238.68 1161 2225.83 1161L1985 1161 1985 920.286 2033.17 872.143 1985 872.143Z" fill="url(#fill1)" fill-rule="evenodd"/></g></svg>